<svg id="SvgjsSvg1001" width="288" height="288" xmlns="http://www.w3.org/2000/svg" version="1.1" xmlns:xlink="http://www.w3.org/1999/xlink" xmlns:svgjs="http://svgjs.com/svgjs"><defs id="SvgjsDefs1002"></defs><g id="SvgjsG1008" transform="matrix(0.9167,0,0,0.9167,11.995200000000011,11.995200000000011)"><svg xmlns="http://www.w3.org/2000/svg" viewBox="0 0 24 24" width="288" height="288"><g data-name="Layer 2" fill="#adb3ba" class="color000 svgShape"><g data-name="arrow-back" fill="#adb3ba" class="color000 svgShape"><rect width="24" height="24" opacity="0" transform="rotate(90 12 12)" fill="#adb3ba" class="color000 svgShape"></rect><path d="M19 11H7.14l3.63-4.36a1 1 0 1 0-1.54-1.28l-5 6a1.19 1.19 0 0 0-.09.15c0 .05 0 .08-.07.13A1 1 0 0 0 4 12a1 1 0 0 0 .07.36c0 .05 0 .08.07.13a1.19 1.19 0 0 0 .09.15l5 6A1 1 0 0 0 10 19a1 1 0 0 0 .64-.23 1 1 0 0 0 .13-1.41L7.14 13H19a1 1 0 0 0 0-2z" fill="#adb3ba" class="color000 svgShape"></path></g></g></svg></g></svg>