<?xml version="1.0" ?><svg id="Icon_Set" style="enable-background:new 0 0 64 64;" version="1.1" viewBox="0 0 64 64" xml:space="preserve" xmlns="http://www.w3.org/2000/svg" xmlns:xlink="http://www.w3.org/1999/xlink"><style type="text/css">
	.st0{fill:#263238;}
	.st1{fill:#4FC3F7;}
	.st2{fill:#FFFFFF;}
	.st3{fill:#FF5592;}
	.st4{fill:#FF5252;}
	.st5{fill:#FFD740;}
	.st6{fill-rule:evenodd;clip-rule:evenodd;fill:#4DB6AC;}
	.st7{fill-rule:evenodd;clip-rule:evenodd;fill:#4FC3F7;}
	.st8{fill-rule:evenodd;clip-rule:evenodd;fill:#FFFFFF;}
	.st9{fill:#4DB6AC;}
	.st10{fill:#6F67D6;}
	.st11{fill:#FF7155;}
	.st12{fill:#445056;}
	.st13{fill:#08141A;}
</style><g><g><path class="st0" d="M52,56.5H12c-2.481,0-4.5-2.019-4.5-4.5V16c0-0.276,0.224-0.5,0.5-0.5s0.5,0.224,0.5,0.5v36    c0,1.93,1.57,3.5,3.5,3.5h40c1.93,0,3.5-1.57,3.5-3.5v-2c0-0.276,0.224-0.5,0.5-0.5s0.5,0.224,0.5,0.5v2    C56.5,54.481,54.481,56.5,52,56.5z"/></g><g><path class="st0" d="M56,48.5c-0.276,0-0.5-0.224-0.5-0.5V12c0-1.93-1.57-3.5-3.5-3.5H12c-1.93,0-3.5,1.57-3.5,3.5v2    c0,0.276-0.224,0.5-0.5,0.5S7.5,14.276,7.5,14v-2c0-2.481,2.019-4.5,4.5-4.5h40c2.481,0,4.5,2.019,4.5,4.5v36    C56.5,48.276,56.276,48.5,56,48.5z"/></g><g><path class="st12" d="M32,15c-9.389,0-17,7.611-17,17c0,7.648,5.052,14.114,12,16.25V43.5h-1.559c-1.509,0-2.843-0.962-3.32-2.393    l-0.088-0.267c-0.068-0.203-0.259-0.34-0.474-0.34H20c-0.829,0-1.5-0.671-1.5-1.5s0.671-1.5,1.5-1.5h1.559    c1.509,0,2.843,0.962,3.32,2.393l0.088,0.267c0.068,0.203,0.259,0.34,0.474,0.34h1.615c0.131-1.008,0.621-1.9,1.359-2.53    C24.824,37.673,22,34.669,22,31v-1c0-1.772,0.664-3.386,1.75-4.619v-3.538c0-0.38,0.406-0.621,0.739-0.439l3.169,1.728    C28.093,23.047,28.541,23,29,23h6c0.459,0,0.907,0.047,1.342,0.132l3.169-1.728c0.333-0.182,0.739,0.059,0.739,0.439v3.538    C41.336,26.614,42,28.228,42,30v1c0,3.67-2.825,6.674-6.418,6.971c0.859,0.734,1.415,1.811,1.415,3.029v0.967    C36.997,41.978,37,41.989,37,42v6.25c6.948-2.135,12-8.602,12-16.25C49,22.611,41.389,15,32,15z"/></g><g><path class="st0" d="M37,48.75c-0.105,0-0.21-0.034-0.297-0.098c-0.128-0.094-0.203-0.244-0.203-0.402L36.497,41    c0-1.011-0.452-1.976-1.24-2.649c-0.153-0.131-0.213-0.342-0.151-0.534c0.062-0.192,0.233-0.328,0.435-0.345    C38.882,37.197,41.5,34.354,41.5,31v-1c0-1.576-0.577-3.099-1.625-4.289c-0.081-0.091-0.125-0.209-0.125-0.331v-3.539    l-3.169,1.729c-0.101,0.056-0.22,0.076-0.334,0.052C35.828,23.542,35.408,23.5,35,23.5h-6c-0.408,0-0.828,0.042-1.247,0.123    c-0.111,0.024-0.232,0.004-0.334-0.052l-3.169-1.729v3.539c0,0.122-0.044,0.239-0.125,0.331C23.077,26.901,22.5,28.424,22.5,30v1    c0,3.353,2.616,6.195,5.957,6.472c0.201,0.017,0.373,0.153,0.435,0.345c0.062,0.192,0.002,0.402-0.151,0.534    c-0.653,0.558-1.074,1.344-1.188,2.213C27.52,40.813,27.308,41,27.057,41h-1.615c-0.431,0-0.812-0.274-0.948-0.682l-0.089-0.268    C23.995,38.824,22.852,38,21.559,38H20c-0.551,0-1,0.449-1,1s0.449,1,1,1h1.559c0.431,0,0.812,0.274,0.948,0.682l0.089,0.268    c0.409,1.226,1.553,2.05,2.846,2.05H27c0.276,0,0.5,0.224,0.5,0.5v4.75c0,0.159-0.075,0.308-0.203,0.402    c-0.127,0.093-0.292,0.122-0.444,0.076C19.464,46.457,14.5,39.734,14.5,32c0-9.649,7.851-17.5,17.5-17.5S49.5,22.351,49.5,32    c0,7.734-4.964,14.457-12.353,16.728C37.099,48.743,37.049,48.75,37,48.75z M37.5,48.25h0.01H37.5z M36.596,38.323    c0.58,0.771,0.901,1.707,0.901,2.677l0.003,6.559c6.608-2.326,11-8.495,11-15.559c0-9.098-7.402-16.5-16.5-16.5    S15.5,22.902,15.5,32c0,7.064,4.392,13.233,11,15.559V44h-1.059c-1.724,0-3.249-1.099-3.794-2.735l-0.089-0.268L20,41    c-1.103,0-2-0.897-2-2s0.897-2,2-2h1.559c1.724,0,3.249,1.099,3.794,2.735l0.089,0.268L26.639,40    c0.14-0.611,0.402-1.181,0.768-1.677C24.026,37.585,21.5,34.539,21.5,31v-1c0-1.755,0.62-3.454,1.75-4.804v-3.354    c0-0.356,0.183-0.678,0.49-0.86c0.307-0.182,0.676-0.189,0.989-0.018l3.014,1.644C28.164,22.537,28.586,22.5,29,22.5h6    c0.414,0,0.836,0.037,1.257,0.108l3.014-1.644c0.313-0.17,0.682-0.164,0.989,0.018c0.307,0.182,0.49,0.503,0.49,0.86v3.354    c1.13,1.35,1.75,3.049,1.75,4.804v1C42.5,34.538,39.976,37.583,36.596,38.323z"/></g></g></svg>