<?xml version="1.0" ?><svg id="Icon_Set" style="enable-background:new 0 0 64 64;" version="1.1" viewBox="0 0 64 64" xml:space="preserve" xmlns="http://www.w3.org/2000/svg" xmlns:xlink="http://www.w3.org/1999/xlink"><style type="text/css">
	.st0{fill:#263238;}
	.st1{fill:#4FC3F7;}
	.st2{fill:#FFFFFF;}
	.st3{fill:#FF5592;}
	.st4{fill:#FF5252;}
	.st5{fill:#FFD740;}
	.st6{fill-rule:evenodd;clip-rule:evenodd;fill:#4DB6AC;}
	.st7{fill-rule:evenodd;clip-rule:evenodd;fill:#4FC3F7;}
	.st8{fill-rule:evenodd;clip-rule:evenodd;fill:#FFFFFF;}
	.st9{fill:#4DB6AC;}
	.st10{fill:#6F67D6;}
	.st11{fill:#FF7155;}
	.st12{fill:#445056;}
	.st13{fill:#08141A;}
</style><g><g><rect class="st1" height="21" width="6" x="17" y="26"/></g><g><circle class="st1" cx="20" cy="20" r="3"/></g><g><path class="st1" d="M34.929,28.071L33,30v-4h-6v21h6V35c0-2.209,1.791-4,4-4h0c2.209,0,4,1.791,4,4v12h6V33.071    C47,29.166,43.834,26,39.929,26h0C38.054,26,36.255,26.745,34.929,28.071z"/></g><g><path class="st0" d="M52,56.5H12c-2.481,0-4.5-2.019-4.5-4.5V16c0-0.276,0.224-0.5,0.5-0.5s0.5,0.224,0.5,0.5v36    c0,1.93,1.57,3.5,3.5,3.5h40c1.93,0,3.5-1.57,3.5-3.5v-2c0-0.276,0.224-0.5,0.5-0.5s0.5,0.224,0.5,0.5v2    C56.5,54.481,54.481,56.5,52,56.5z"/></g><g><path class="st0" d="M56,48.5c-0.276,0-0.5-0.224-0.5-0.5V12c0-1.93-1.57-3.5-3.5-3.5H12c-1.93,0-3.5,1.57-3.5,3.5v2    c0,0.276-0.224,0.5-0.5,0.5S7.5,14.276,7.5,14v-2c0-2.481,2.019-4.5,4.5-4.5h40c2.481,0,4.5,2.019,4.5,4.5v36    C56.5,48.276,56.276,48.5,56,48.5z"/></g><g><path class="st0" d="M23,47.5h-6c-0.276,0-0.5-0.224-0.5-0.5V26c0-0.276,0.224-0.5,0.5-0.5h6c0.276,0,0.5,0.224,0.5,0.5v21    C23.5,47.276,23.276,47.5,23,47.5z M17.5,46.5h5v-20h-5V46.5z"/></g><g><path class="st0" d="M20,23.5c-1.93,0-3.5-1.57-3.5-3.5s1.57-3.5,3.5-3.5s3.5,1.57,3.5,3.5S21.93,23.5,20,23.5z M20,17.5    c-1.379,0-2.5,1.122-2.5,2.5s1.121,2.5,2.5,2.5s2.5-1.122,2.5-2.5S21.379,17.5,20,17.5z"/></g><g><path class="st0" d="M47,47.5h-6c-0.276,0-0.5-0.224-0.5-0.5V35c0-1.93-1.57-3.5-3.5-3.5s-3.5,1.57-3.5,3.5v12    c0,0.276-0.224,0.5-0.5,0.5h-6c-0.276,0-0.5-0.224-0.5-0.5V26c0-0.276,0.224-0.5,0.5-0.5h6c0.276,0,0.5,0.224,0.5,0.5v2.793    l1.075-1.075c1.43-1.43,3.331-2.218,5.354-2.218c4.175,0,7.571,3.396,7.571,7.571V47C47.5,47.276,47.276,47.5,47,47.5z M41.5,46.5    h5V33.071c0-3.624-2.948-6.571-6.571-6.571c-1.755,0-3.405,0.684-4.646,1.925l-1.929,1.929c-0.144,0.143-0.359,0.187-0.545,0.108    C32.622,30.385,32.5,30.202,32.5,30v-3.5h-5v20h5V35c0-2.481,2.019-4.5,4.5-4.5s4.5,2.019,4.5,4.5V46.5z"/></g></g></svg>