<?xml version="1.0" encoding="UTF-8"?>
<svg viewBox="0 0 128 54" xmlns="http://www.w3.org/2000/svg">
<path d="m14.256 29.096c-0.0469 0.0938-0.1465 0.293-0.2989 0.5977-0.1406 0.2929-0.3281 0.6328-0.5625 1.0195-0.2226 0.3867-0.4863 0.791-0.791 1.2129s-0.6445 0.8086-1.0195 1.1601c-0.375 0.3516-0.7793 0.6446-1.2129 0.8789-0.4336 0.2227-0.89063 0.334-1.3711 0.334-0.67969 0-1.2539-0.2168-1.7227-0.6504-0.45703-0.4336-0.79101-0.9785-1.002-1.6347-0.39844 0.6679-0.87305 1.2011-1.4238 1.5996-0.55078 0.3867-1.1016 0.5801-1.6523 0.5801-0.4336 0-0.82617-0.0762-1.1777-0.2286-0.35156-0.164-0.65039-0.3867-0.89648-0.6679-0.24609-0.293-0.43945-0.6328-0.58008-1.0196-0.12891-0.3867-0.19336-0.8085-0.19336-1.2656 0-0.914 0.15234-1.7168 0.45703-2.4082 0.31641-0.7031 0.71485-1.289 1.1953-1.7578 0.48047-0.4687 1.0078-0.8203 1.582-1.0547 0.58594-0.2344 1.1484-0.3515 1.6875-0.3515 0.36328 0 0.69726 0.0527 1.002 0.1582 0.30469 0.0937 0.5625 0.1992 0.77344 0.3164 0.22265 0.1171 0.39258 0.2285 0.50976 0.3339 0.11719 0.0938 0.18164 0.1465 0.19336 0.1582 0.12891 0.1524 0.19336 0.3106 0.19336 0.4747 0 0.1757-0.06445 0.3339-0.19336 0.4746-0.1289 0.1289-0.28125 0.1933-0.45703 0.1933-0.1875 0-0.3457-0.0644-0.47461-0.1933-0.02343-0.0235-0.07617-0.0645-0.1582-0.1231-0.08203-0.0703-0.19336-0.1406-0.33399-0.2109-0.14062-0.0703-0.31054-0.1289-0.50976-0.1758-0.1875-0.0586-0.4043-0.0879-0.65039-0.0879-0.36328 0-0.75 0.082-1.1602 0.2461-0.41015 0.1641-0.78515 0.4219-1.125 0.7734-0.33984 0.3399-0.62695 0.7735-0.86133 1.3008-0.22265 0.5157-0.33398 1.1309-0.33398 1.8457 0 0.2227 0.02344 0.4512 0.07031 0.6856 0.04688 0.2226 0.12891 0.4277 0.2461 0.6152 0.11718 0.1875 0.27539 0.3399 0.47461 0.457 0.19921 0.1172 0.44531 0.1758 0.73828 0.1758 0.21093 0 0.45117-0.0703 0.7207-0.2109 0.28125-0.1406 0.54492-0.3574 0.79102-0.6504 0.25781-0.293 0.48632-0.6621 0.68554-1.1074 0.21094-0.4453 0.35742-0.9727 0.43946-1.5821 0.02343-0.164 0.0996-0.2988 0.22851-0.4043 0.12891-0.1171 0.28125-0.1757 0.45703-0.1757 0.16406 0 0.30469 0.0644 0.42188 0.1933 0.1289 0.1289 0.19922 0.2754 0.21094 0.4395 0.01171 0.2226 0.03515 0.539 0.07031 0.9492 0.03515 0.3984 0.11133 0.7969 0.22851 1.1953 0.12891 0.3984 0.31641 0.7441 0.5625 1.0371 0.2461 0.293 0.58594 0.4395 1.0195 0.4395 0.28125 0 0.55665-0.0762 0.82618-0.2285 0.28129-0.1524 0.55079-0.3516 0.80859-0.5977 0.2695-0.2578 0.5215-0.5449 0.7559-0.8613 0.2461-0.3282 0.4687-0.6563 0.6679-0.9844s0.375-0.6445 0.5274-0.9492c0.1523-0.3047 0.2812-0.5684 0.3867-0.791 0.0586-0.1289 0.1406-0.2286 0.2461-0.2989 0.1172-0.0703 0.2402-0.1054 0.3691-0.1054 0.1992 0 0.3574 0.0761 0.4746 0.2285 0.1289 0.1406 0.1934 0.2929 0.1934 0.457 0 0.082-0.0176 0.1641-0.0527 0.2461zm5.1503 6.627c2.2032-2.8711 3.7325-5.2559 4.5879-7.1543 0.0586-0.1289 0.1348-0.2227 0.2286-0.2813 0.1054-0.0703 0.2226-0.1055 0.3515-0.1055 0.1992 0 0.3633 0.0704 0.4922 0.211 0.1289 0.1289 0.1934 0.2812 0.1934 0.457 0 0.082-0.0176 0.1641-0.0528 0.2461-0.5156 1.1719-1.248 2.4785-2.1972 3.9199-0.9493 1.4414-2.1504 3.0703-3.6036 4.8867 0 0.7383 0.0059 1.4766 0.0176 2.2149s0.0176 1.5469 0.0176 2.4258-0.0234 1.7461-0.0703 2.6015c-0.0352 0.8672-0.1055 1.6875-0.2109 2.461-0.1055 0.7851-0.252 1.5058-0.4395 2.1621-0.1758 0.6679-0.4102 1.2422-0.7031 1.7226-0.2813 0.4922-0.627 0.8731-1.0371 1.1426-0.3985 0.2813-0.8731 0.4219-1.4239 0.4219-0.7851 0-1.3886-0.2988-1.8105-0.8965s-0.6328-1.4473-0.6328-2.5488c0-0.586 0.0527-1.2246 0.1582-1.916 0.1172-0.6797 0.2812-1.3829 0.4922-2.1094 0.2109-0.7266 0.4629-1.4649 0.7558-2.2149 0.3047-0.7382 0.6387-1.4589 1.002-2.1621 0.3633-0.7031 0.7558-1.3769 1.1777-2.0215 0.4336-0.6445 0.8906-1.2304 1.3711-1.7578 0.0117-0.8203 0.0176-1.6347 0.0176-2.4433 0.0117-0.8086 0.0293-1.5528 0.0527-2.2324-0.3515 0.4453-0.7734 0.7968-1.2656 1.0546-0.4805 0.2579-0.9609 0.3868-1.4414 0.3868-0.4102 0-0.7852-0.0762-1.125-0.2286-0.3281-0.164-0.6094-0.3867-0.8438-0.6679-0.2343-0.293-0.416-0.6328-0.5449-1.0196-0.1289-0.3867-0.1933-0.8085-0.1933-1.2656 0-0.914 0.1523-1.7168 0.457-2.4082 0.3164-0.7031 0.7148-1.289 1.1953-1.7578 0.4805-0.4687 1.0078-0.8203 1.582-1.0547 0.586-0.2344 1.1485-0.3515 1.6875-0.3515 0.3633 0 0.6973 0.0468 1.002 0.1406 0.3047 0.0937 0.5625 0.1992 0.7734 0.3164 0.2227 0.1172 0.3926 0.2285 0.5098 0.334 0.1172 0.1054 0.1816 0.164 0.1934 0.1757 0.1289 0.1407 0.1933 0.2989 0.1933 0.4747 0 0.1757-0.0644 0.3339-0.1933 0.4746-0.129 0.1289-0.2813 0.1933-0.4571 0.1933-0.164 0-0.3222-0.0644-0.4746-0.1933-0.0469-0.0352-0.1113-0.0821-0.1933-0.1407-0.0704-0.0703-0.17-0.1406-0.2989-0.2109-0.1172-0.0703-0.2636-0.1289-0.4394-0.1758-0.1641-0.0469-0.3633-0.0703-0.5977-0.0703-0.3515 0-0.7383 0.082-1.1601 0.2461-0.4219 0.1523-0.8145 0.3984-1.1778 0.7383-0.3633 0.3398-0.6679 0.7793-0.914 1.3183-0.2461 0.5274-0.3692 1.1661-0.3692 1.9161 0 0.5625 0.1231 1.0195 0.3692 1.3711 0.2461 0.3398 0.6269 0.5097 1.1425 0.5097 0.2461 0 0.5039-0.0703 0.7735-0.2109 0.2812-0.1406 0.5508-0.3574 0.8086-0.6504s0.4804-0.6621 0.6679-1.1074c0.1993-0.4453 0.3399-0.9727 0.4219-1.5821 0.0235-0.164 0.0996-0.2988 0.2285-0.4043 0.1289-0.1171 0.2813-0.1757 0.4571-0.1757 0.1992 0 0.3515 0.0703 0.457 0.2109 0.1172 0.1406 0.1758 0.2988 0.1758 0.4746 0 0.0117-0.0059 0.1934-0.0176 0.5449-0.0117 0.3399-0.0234 0.7969-0.0352 1.3711-0.0117 0.5742-0.0293 1.2422-0.0527 2.0039-0.0117 0.75-0.0234 1.5469-0.0352 2.3907zm-1.3359 3.8496c-0.5508 0.7617-1.0488 1.5879-1.4941 2.4785-0.4453 0.9023-0.8262 1.8105-1.1426 2.7246s-0.5625 1.7988-0.7383 2.6543c-0.1641 0.8672-0.2461 1.6406-0.2461 2.3203 0 0.4336 0.0352 0.7793 0.1055 1.0371 0.082 0.2578 0.1758 0.457 0.2812 0.5977 0.1172 0.1406 0.2403 0.2343 0.3692 0.2812 0.1406 0.0469 0.2695 0.0703 0.3867 0.0703 0.3633 0 0.6797-0.1465 0.9492-0.4394 0.2695-0.293 0.4981-0.6856 0.6856-1.1778 0.1875-0.4804 0.3398-1.0371 0.457-1.6699s0.2051-1.289 0.2637-1.9687c0.0586-0.668 0.0996-1.336 0.123-2.0039 0.0235-0.668 0.0352-1.2832 0.0352-1.8457v-1.5118c0-0.5039-0.0117-1.0195-0.0352-1.5468zm8.8067-19.371c0 0.4453-0.1582 0.8261-0.4747 1.1426-0.3046 0.3046-0.6796 0.457-1.125 0.457-0.4453 0-0.8261-0.1524-1.1425-0.457-0.3047-0.3165-0.4571-0.6973-0.4571-1.1426 0-0.2227 0.0411-0.4278 0.1231-0.6153 0.082-0.1992 0.1933-0.3691 0.334-0.5097 0.1523-0.1524 0.3222-0.2696 0.5097-0.3516 0.1993-0.082 0.4102-0.123 0.6328-0.123 0.2227 0 0.4278 0.041 0.6153 0.123 0.1992 0.082 0.3691 0.1992 0.5097 0.3516 0.1524 0.1406 0.2696 0.3105 0.3516 0.5097 0.082 0.1875 0.1231 0.3926 0.1231 0.6153zm-2.8477 10.301c0-1.6875 0.1055-3.3692 0.3164-5.045 0.0234-0.164 0.0938-0.3047 0.2109-0.4218 0.1289-0.129 0.293-0.1934 0.4922-0.1934 0.1758 0 0.3223 0.0703 0.4395 0.2109 0.1172 0.1289 0.1758 0.2813 0.1758 0.4571 0 0.0703-0.0176 0.2812-0.0528 0.6328-0.0234 0.3515-0.0586 0.7734-0.1054 1.2656-0.0352 0.4805-0.0704 0.9961-0.1055 1.5469-0.0234 0.539-0.0352 1.0371-0.0352 1.4941 0 0.6211 0.0586 1.125 0.1758 1.5117 0.1289 0.375 0.2871 0.668 0.4746 0.8789 0.1992 0.211 0.4043 0.3516 0.6153 0.4219 0.2226 0.0703 0.4336 0.1055 0.6328 0.1055 0.3281 0 0.6679-0.1172 1.0195-0.3516s0.709-0.5625 1.0723-0.9844c0.375-0.4218 0.75-0.9257 1.125-1.5117 0.375-0.5976 0.7441-1.2597 1.1074-1.9863 0.0586-0.1172 0.1406-0.2051 0.2461-0.2637 0.1055-0.0703 0.2226-0.1054 0.3515-0.1054 0.1875 0 0.3399 0.0703 0.4571 0.2109 0.1289 0.1406 0.1933 0.293 0.1933 0.457 0 0.1172-0.0234 0.2168-0.0703 0.2989-0.1406 0.2695-0.3164 0.5976-0.5273 0.9843-0.211 0.3868-0.4512 0.7852-0.7207 1.1953-0.2696 0.4102-0.5684 0.8204-0.8965 1.2305-0.3164 0.3985-0.6563 0.7617-1.0195 1.0899-0.3633 0.3164-0.7442 0.5742-1.1426 0.7734-0.3985 0.1992-0.8028 0.2988-1.2129 0.2988-0.5273 0-0.9902-0.1113-1.3887-0.334-0.3984-0.2226-0.7383-0.5214-1.0195-0.8964-0.2695-0.375-0.4746-0.8145-0.6152-1.3184-0.1289-0.5156-0.1934-1.0664-0.1934-1.6523zm1.8633-10.301c0-0.1641-0.0645-0.3047-0.1934-0.4219-0.1172-0.1289-0.2578-0.1934-0.4219-0.1934-0.164 0-0.3046 0.0645-0.4218 0.1934-0.1172 0.1172-0.1758 0.2578-0.1758 0.4219 0 0.164 0.0586 0.3047 0.1758 0.4218 0.1172 0.1172 0.2578 0.1758 0.4218 0.1758 0.1641 0 0.3047-0.0586 0.4219-0.1758 0.1289-0.1171 0.1934-0.2578 0.1934-0.4218zm7.5234 6.5742c-0.0469 0.3164-0.1055 0.6152-0.1758 0.8965-0.0703 0.2695-0.1406 0.5097-0.2109 0.7207-0.0586 0.1992-0.1113 0.3633-0.1582 0.4922s-0.0762 0.1992-0.0879 0.2109c-0.1172 0.2695-0.3223 0.4043-0.6152 0.4043-0.1641 0-0.3164-0.0586-0.4571-0.1758-0.1406-0.1289-0.2109-0.2871-0.2109-0.4746 0-0.0703 0.0117-0.123 0.0352-0.1582 0.0234-0.0352 0.0586-0.1055 0.1054-0.2109 0.0469-0.1055 0.1055-0.2813 0.1758-0.5274s0.1582-0.6269 0.2637-1.1426c-0.1992 0-0.4043-0.0058-0.6153-0.0175-0.2109-0.0118-0.4043-0.0528-0.58-0.1231-0.1875-0.0703-0.3399-0.1816-0.4571-0.334-0.1172-0.1523-0.1757-0.3632-0.1757-0.6328 0-0.1992 0.0585-0.4687 0.1757-0.8086 0.1055-0.3398 0.252-0.6738 0.4395-1.0019s0.3984-0.6094 0.6328-0.8438c0.2344-0.2461 0.4688-0.3691 0.7031-0.3691 0.2696 0 0.4864 0.0996 0.6504 0.2988 0.1758 0.1992 0.3106 0.4453 0.4043 0.7383 0.0938 0.2812 0.1582 0.5801 0.1934 0.8965 0.0468 0.3164 0.0703 0.5918 0.0703 0.8262h0.5801c0.1992-0.0118 0.3867-0.0176 0.5625-0.0176 0.6679 0 1.1777 0.1465 1.5293 0.4394 0.3515 0.293 0.5273 0.7735 0.5273 1.4414 0 0.2696-0.0176 0.5508-0.0527 0.8438-0.0352 0.293-0.0762 0.5976-0.1231 0.914-0.0469 0.3047-0.0879 0.6094-0.123 0.9141-0.0352 0.3047-0.0528 0.6035-0.0528 0.8965 0 0.4219 0.0586 0.7734 0.1758 1.0547 0.1172 0.2695 0.2637 0.4863 0.4395 0.6504 0.1758 0.164 0.3633 0.2812 0.5625 0.3515 0.1992 0.0586 0.3808 0.0879 0.5449 0.0879 0.5039 0 0.9785-0.164 1.4238-0.4922 0.4453-0.3281 0.8555-0.7207 1.2305-1.1777 0.375-0.4687 0.709-0.9609 1.0019-1.4766 0.3047-0.5156 0.5567-0.9668 0.7559-1.3535 0.0586-0.1054 0.1406-0.1875 0.2461-0.2461s0.2168-0.0879 0.334-0.0879c0.2109 0 0.375 0.0704 0.4922 0.211 0.1172 0.1289 0.1758 0.2754 0.1758 0.4394 0 0.1172-0.0235 0.2227-0.0704 0.3164-0.2695 0.4805-0.5859 1.0254-0.9492 1.6348-0.3515 0.5977-0.7558 1.1602-1.2129 1.6875-0.457 0.5273-0.9726 0.9727-1.5468 1.3359-0.5625 0.3633-1.1836 0.545-1.8633 0.545-0.4219 0-0.8203-0.0821-1.1953-0.2461-0.375-0.1524-0.7032-0.375-0.9844-0.668-0.2695-0.3047-0.4863-0.6738-0.6504-1.1074-0.1641-0.4453-0.2461-0.9434-0.2461-1.4942 0-0.5859 0.0586-1.166 0.1758-1.7402 0.1172-0.5859 0.1758-1.1426 0.1758-1.6699 0-0.2227-0.0528-0.3867-0.1582-0.4922-0.0938-0.1172-0.3106-0.1758-0.6504-0.1758h-0.545c-0.1874 0-0.3925 0.0059-0.6152 0.0176zm-1.1777-1.3008c0-0.082-0.0059-0.1875-0.0176-0.3164 0-0.1406-0.0117-0.2754-0.0352-0.4043-0.0117-0.1289-0.0351-0.2402-0.0703-0.334-0.0234-0.0937-0.0527-0.1406-0.0879-0.1406-0.0351 0-0.082 0.0469-0.1406 0.1406-0.0469 0.0821-0.0996 0.1875-0.1582 0.3164-0.0586 0.1172-0.1113 0.2461-0.1582 0.3867-0.0469 0.1407-0.082 0.2579-0.1055 0.3516h0.7735zm20.268 3.6563c-0.1289 0.2695-0.293 0.5918-0.4922 0.9668-0.1875 0.3632-0.4043 0.7441-0.6504 1.1425-0.2461 0.3985-0.5215 0.7969-0.8262 1.1953-0.3047 0.3868-0.6387 0.7383-1.0019 1.0547-0.3516 0.3047-0.7325 0.5508-1.1426 0.7383-0.3985 0.1992-0.8262 0.2988-1.2832 0.2988-0.7032 0-1.3067-0.2168-1.8106-0.6503-0.5039-0.4336-0.9316-1.002-1.2832-1.7051-0.3515-0.7031-0.6386-1.5-0.8613-2.3907-0.2109-0.9023-0.375-1.8164-0.4922-2.7421-0.1172-0.9375-0.1992-1.8457-0.2461-2.7246-0.0351-0.879-0.0527-1.6583-0.0527-2.3379 0-0.9844 0.0293-2.0039 0.0879-3.0586 0.0703-1.0547 0.1758-2.086 0.3164-3.0938s0.3164-1.9629 0.5273-2.8652c0.2227-0.9024 0.4805-1.6934 0.7735-2.3731 0.3046-0.67965 0.6504-1.2187 1.0371-1.6172s0.8261-0.59766 1.3183-0.59766c0.3867 0 0.7324 0.09375 1.0371 0.28125 0.3164 0.17578 0.5801 0.46875 0.7911 0.87891 0.2109 0.41016 0.375 0.94335 0.4921 1.5996 0.1172 0.6562 0.1758 1.4589 0.1758 2.4082 0 1.1718-0.123 2.3847-0.3691 3.6386-0.2461 1.2422-0.5801 2.4961-1.002 3.7618-0.4218 1.2656-0.9199 2.5312-1.4941 3.7968-0.5742 1.2539-1.1895 2.4785-1.8457 3.6739 0.293 1.4882 0.6855 2.6601 1.1777 3.5156 0.4922 0.8437 1.084 1.2656 1.7754 1.2656 0.4688 0 0.9199-0.1816 1.3535-0.5449 0.4336-0.375 0.8321-0.8145 1.1953-1.3184 0.3633-0.5039 0.6797-1.0136 0.9493-1.5293 0.2812-0.5273 0.498-0.9492 0.6503-1.2656 0.0586-0.1172 0.1407-0.2051 0.2461-0.2637 0.1055-0.0703 0.2227-0.1054 0.3516-0.1054 0.1992 0 0.3574 0.0703 0.4746 0.2109 0.1289 0.1406 0.1934 0.2988 0.1934 0.4746 0 0.0703-0.0235 0.1641-0.0703 0.2813zm-8.8067-7.0664c0 0.75 0.0176 1.4707 0.0528 2.1621 0.0351 0.6914 0.082 1.3535 0.1406 1.9863 0.4922-0.9492 0.9609-1.957 1.4062-3.0234 0.4453-1.0782 0.8379-2.1622 1.1778-3.252 0.3398-1.1016 0.6093-2.1914 0.8086-3.2695 0.2109-1.0899 0.3164-2.127 0.3164-3.1114 0-1.3828-0.1114-2.373-0.334-2.9707-0.2227-0.59762-0.5215-0.89645-0.8965-0.89645-0.2461 0-0.4863 0.16993-0.7207 0.50975-0.2227 0.3399-0.4336 0.8028-0.6328 1.3887s-0.3809 1.2773-0.5449 2.0742c-0.1641 0.7969-0.3047 1.6524-0.4219 2.5664-0.1055 0.9141-0.1934 1.8692-0.2637 2.8653-0.0586 0.996-0.0879 1.9863-0.0879 2.9707zm11.145 11.426c0 0.2696-0.0938 0.4922-0.2813 0.668-0.1758 0.1875-0.3984 0.2813-0.668 0.2813-0.2695 0-0.498-0.0938-0.6855-0.2813-0.1758-0.1758-0.2637-0.3984-0.2637-0.668 0-0.2578 0.0879-0.4746 0.2637-0.6504 0.1875-0.1875 0.416-0.2812 0.6855-0.2812 0.2696 0 0.4922 0.0937 0.668 0.2812 0.1875 0.1758 0.2813 0.3926 0.2813 0.6504zm14.449-4.3593c-0.0703 0.1289-0.1934 0.3632-0.3692 0.7031-0.164 0.3398-0.3926 0.7265-0.6855 1.1601-0.2813 0.4219-0.6211 0.8614-1.0195 1.3184-0.3985 0.457-0.8555 0.8789-1.3711 1.2656-0.5157 0.375-1.0957 0.6856-1.7403 0.9317-0.6328 0.2461-1.3242 0.3691-2.0742 0.3691-0.668 0-1.2598-0.123-1.7754-0.3691-0.5156-0.2344-0.9551-0.5684-1.3183-1.002-0.3633-0.4453-0.6387-0.9668-0.8262-1.5644-0.1875-0.5977-0.2813-1.2598-0.2813-1.9864 0-0.7031 0.0996-1.3593 0.2989-1.9687 0.1992-0.6211 0.4687-1.1602 0.8086-1.6172 0.3515-0.457 0.7558-0.8145 1.2128-1.0723 0.4571-0.2695 0.9434-0.4043 1.459-0.4043 0.3867 0 0.7383 0.0703 1.0547 0.211 0.3164 0.1289 0.5801 0.3047 0.791 0.5273 0.2227 0.2227 0.3926 0.4688 0.5098 0.7383 0.1289 0.2695 0.1934 0.5391 0.1934 0.8086 0 0.2578-0.0352 0.498-0.1055 0.7207-0.0586 0.2226-0.1406 0.4219-0.2461 0.5976-0.0938 0.1641-0.2051 0.2989-0.334 0.4043-0.1289 0.0938-0.2578 0.1407-0.3867 0.1407-0.1992 0-0.3633-0.0645-0.4922-0.1934-0.1172-0.1289-0.1758-0.2871-0.1758-0.4746 0-0.0938 0.0176-0.1758 0.0528-0.2461 0.0468-0.0703 0.0937-0.1406 0.1406-0.2109 0.0586-0.0821 0.1055-0.1758 0.1406-0.2813 0.0469-0.1172 0.0703-0.2637 0.0703-0.4394 0-0.2461-0.1172-0.4688-0.3515-0.668-0.2227-0.1992-0.5098-0.2988-0.8614-0.2988-0.3281 0-0.6445 0.0996-0.9492 0.2988-0.293 0.1992-0.5508 0.4687-0.7734 0.8086-0.2227 0.3281-0.4043 0.7207-0.5449 1.1777-0.129 0.4453-0.1934 0.9199-0.1934 1.4239 0 0.4804 0.0586 0.9375 0.1758 1.371 0.1172 0.4336 0.2929 0.8204 0.5273 1.1602 0.2344 0.3281 0.5274 0.5918 0.8789 0.791 0.3633 0.1992 0.791 0.2988 1.2832 0.2988 0.6328 0 1.2188-0.1113 1.7578-0.3339 0.5391-0.2344 1.0313-0.5274 1.4766-0.8789 0.4453-0.3516 0.8379-0.7325 1.1777-1.1426 0.3399-0.4219 0.627-0.8145 0.8614-1.1778 0.2461-0.375 0.4336-0.6972 0.5625-0.9668 0.1406-0.2812 0.2226-0.457 0.2461-0.5273 0.0468-0.1172 0.123-0.2051 0.2285-0.2637 0.1172-0.0703 0.2402-0.1054 0.3691-0.1054 0.1992 0 0.3574 0.0703 0.4746 0.2109 0.1289 0.1406 0.1934 0.2988 0.1934 0.4746 0 0.0703-0.0235 0.1641-0.0703 0.2813zm6.9082 2.9355c-0.293 0-0.5508-0.0234-0.7735-0.0703-0.1757 0.3516-0.3867 0.6797-0.6328 0.9844-0.2461 0.2929-0.5332 0.5507-0.8613 0.7734-0.3164 0.2227-0.6738 0.3984-1.0723 0.5273-0.3984 0.129-0.832 0.1934-1.3008 0.1934-0.5507 0-1.0546-0.0996-1.5117-0.2988-0.457-0.1875-0.8554-0.4512-1.1953-0.791-0.3398-0.3516-0.6035-0.7676-0.791-1.2481-0.1875-0.4922-0.2813-1.0312-0.2813-1.6172 0-0.75 0.1348-1.4004 0.4043-1.9511 0.2696-0.5625 0.5801-1.0254 0.9317-1.3887 0.3516-0.375 0.7031-0.6504 1.0547-0.8262 0.3515-0.1875 0.6152-0.2812 0.791-0.2812 0.1992 0 0.3457 0.0527 0.4394 0.1582 0.1055 0.1054 0.1582 0.2461 0.1582 0.4218 0 0.1993-0.0644 0.3516-0.1933 0.4571-0.1172 0.0937-0.2695 0.1875-0.457 0.2812-0.1875 0.0938-0.3868 0.2285-0.5977 0.4043-0.2109 0.1641-0.4102 0.375-0.5977 0.6328-0.1757 0.2578-0.3222 0.5625-0.4394 0.9141s-0.1758 0.7441-0.1758 1.1777c0 0.3867 0.0586 0.75 0.1758 1.0899 0.1172 0.3281 0.2871 0.6152 0.5098 0.8613 0.2226 0.2344 0.4863 0.4219 0.791 0.5625 0.3047 0.1289 0.6445 0.1934 1.0195 0.1934 0.668 0 1.2188-0.1524 1.6523-0.4571 0.4454-0.3164 0.7852-0.7148 1.0196-1.1953-0.6914-0.3633-1.2598-0.8789-1.7051-1.5469-0.4453-0.6679-0.668-1.4179-0.668-2.25 0-0.6679 0.1582-1.2128 0.4746-1.6347 0.3282-0.4219 0.7559-0.6328 1.2832-0.6328 0.3165 0 0.6153 0.0761 0.8965 0.2285 0.2813 0.1523 0.5274 0.3926 0.7383 0.7207 0.2227 0.3281 0.3984 0.75 0.5274 1.2656 0.1289 0.5156 0.1933 1.1309 0.1933 1.8457 0 0.375-0.0469 0.7676-0.1406 1.1777 0.0703 0.0118 0.1406 0.0176 0.2109 0.0176h0.2285c0.3985 0 0.7559-0.0468 1.0723-0.1406s0.6035-0.2344 0.8613-0.4219 0.4864-0.4277 0.6856-0.7207c0.2109-0.2929 0.4101-0.6328 0.5976-1.0195 0.0352-0.0703 0.1114-0.1348 0.2286-0.1934 0.1171-0.0703 0.2343-0.1054 0.3515-0.1054 0.1524 0 0.293 0.0644 0.4219 0.1933 0.1406 0.1172 0.2109 0.2754 0.2109 0.4746 0 0.0938-0.0234 0.1992-0.0703 0.3164-0.0469 0.1055-0.0937 0.2051-0.1406 0.2989-0.1992 0.3515-0.4336 0.6914-0.7031 1.0195-0.2578 0.3164-0.5684 0.5977-0.9317 0.8437-0.3515 0.2344-0.75 0.4219-1.1953 0.5625-0.4453 0.1407-0.9433 0.2051-1.4941 0.1934zm-3.0059-4.4297c0 0.2227 0.0293 0.4571 0.0879 0.7031 0.0586 0.2461 0.1465 0.4922 0.2637 0.7383 0.1289 0.2344 0.2812 0.4629 0.457 0.6856 0.1875 0.2109 0.4043 0.3925 0.6504 0.5449 0.0352-0.2461 0.0527-0.4863 0.0527-0.7207 0-0.3164-0.0234-0.6387-0.0703-0.9668s-0.1172-0.627-0.2109-0.8965c-0.082-0.2812-0.1875-0.5039-0.3164-0.668-0.1289-0.1757-0.2813-0.2636-0.4571-0.2636-0.0703 0-0.164 0.0527-0.2812 0.1582-0.1172 0.1054-0.1758 0.334-0.1758 0.6855zm13.113 1.2481c0.5742 2.707 1.4062 4.0605 2.4961 4.0605 0.4219 0 0.8262-0.1523 1.2129-0.457 0.3867-0.3164 0.7441-0.6973 1.0722-1.1426 0.3399-0.457 0.6387-0.9375 0.8965-1.4414s0.4688-0.9434 0.6328-1.3184c0.1172-0.2812 0.3223-0.4218 0.6153-0.4218 0.1875 0 0.3457 0.0703 0.4746 0.2109s0.1933 0.293 0.1933 0.457c0 0.0938-0.0175 0.1758-0.0527 0.2461-0.082 0.1992-0.2051 0.4688-0.3691 0.8086-0.1524 0.3281-0.3457 0.6856-0.5801 1.0723-0.2227 0.375-0.4746 0.7617-0.7559 1.1601-0.2812 0.3985-0.5918 0.7559-0.9316 1.0723-0.3399 0.3164-0.7031 0.5801-1.0899 0.791-0.375 0.1992-0.7734 0.2988-1.1953 0.2988-0.7851 0-1.4589-0.2695-2.0215-0.8085-0.5624-0.5508-1.0488-1.4532-1.4589-2.7071-0.5625 1.1953-1.1309 2.0625-1.7051 2.6016-0.5742 0.539-1.1953 0.8086-1.8633 0.8086-0.3516 0-0.6914-0.0586-1.0195-0.1758-0.3282-0.1055-0.6153-0.2871-0.8614-0.5449-0.246-0.2578-0.4453-0.586-0.5976-0.9844-0.1524-0.4102-0.2285-0.9082-0.2285-1.4941 0-0.8086 0.1406-1.5528 0.4219-2.2325 0.2812-0.6796 0.6445-1.2597 1.0898-1.7402 0.4453-0.4922 0.9375-0.873 1.4766-1.1426 0.5507-0.2695 1.0957-0.4043 1.6347-0.4043 0.1758 0 0.3281 0.0645 0.4571 0.1934 0.1289 0.1172 0.1933 0.2695 0.1933 0.457 0 0.1641-0.0527 0.3106-0.1582 0.4395s-0.2461 0.2051-0.4219 0.2285c-0.3515 0.0469-0.7265 0.1582-1.125 0.334-0.3984 0.1758-0.7675 0.4336-1.1074 0.7734-0.3281 0.3281-0.6035 0.75-0.8262 1.2656-0.2109 0.5157-0.3164 1.1309-0.3164 1.8457 0 0.586 0.1172 1.043 0.3516 1.3711 0.2461 0.3282 0.5977 0.4922 1.0547 0.4922 0.1875 0 0.3867-0.0469 0.5976-0.1406 0.211-0.1055 0.4336-0.3047 0.668-0.5977 0.2461-0.2929 0.5098-0.7089 0.791-1.248 0.293-0.5391 0.6153-1.2481 0.9668-2.127-0.1992-1.0312-0.3808-2.2207-0.5449-3.5683-0.1641-1.3477-0.2461-2.8535-0.2461-4.5176 0-0.7266 0.0234-1.4824 0.0703-2.2676 0.0469-0.7968 0.1231-1.5703 0.2285-2.3203 0.1055-0.7617 0.2461-1.4824 0.4219-2.1621s0.3867-1.2773 0.6328-1.793c0.2578-0.5156 0.5567-0.9199 0.8965-1.2129 0.3399-0.3046 0.7266-0.457 1.1602-0.457 0.3867 0 0.7148 0.1055 0.9843 0.3164 0.2696 0.211 0.4864 0.5039 0.6504 0.8789 0.1758 0.375 0.3047 0.8262 0.3867 1.3535 0.0821 0.5274 0.1231 1.1075 0.1231 1.7403 0 1.3594-0.1172 2.7187-0.3516 4.0781-0.2343 1.3594-0.5273 2.6602-0.8789 3.9023-0.3398 1.2422-0.7031 2.3907-1.0898 3.4454-0.3867 1.0546-0.7383 1.9628-1.0547 2.7246zm2.0566-14.168c0-0.293-0.0117-0.6094-0.0351-0.9492-0.0117-0.3399-0.0528-0.6563-0.1231-0.9492-0.0586-0.3047-0.1406-0.5567-0.2461-0.7559-0.1054-0.1992-0.2461-0.2988-0.4218-0.2988-0.293 0-0.5684 0.2578-0.8262 0.7734-0.2461 0.5156-0.4629 1.1953-0.6504 2.0391-0.1875 0.832-0.3398 1.7812-0.457 2.8476-0.1055 1.0547-0.1582 2.1211-0.1582 3.1992 0 1.0313 0.041 2.0625 0.123 3.0938 0.082 1.0312 0.1758 1.9512 0.2813 2.7598 0.3398-0.9024 0.6621-1.8282 0.9668-2.7774 0.3046-0.9609 0.5683-1.9394 0.791-2.9355 0.2344-0.9961 0.416-1.9981 0.5449-3.0059 0.1406-1.0195 0.2109-2.0332 0.2109-3.041zm6.3809 17.35c0.2461 0.3398 0.5625 0.6152 0.9492 0.8262 0.3867 0.1992 0.8613 0.2988 1.4238 0.2988 0.5743 0 1.0957-0.1348 1.5645-0.4043 0.4687-0.2812 0.8965-0.6445 1.2832-1.0898 0.3872-0.4453 0.7322-0.9434 1.0372-1.4942s0.58-1.1015 0.826-1.6523c0.059-0.1289 0.141-0.2227 0.246-0.2813 0.106-0.0703 0.223-0.1054 0.352-0.1054 0.199 0 0.357 0.0703 0.474 0.2109 0.129 0.1406 0.194 0.293 0.194 0.457 0 0.0586-6e-3 0.1114-0.018 0.1582-0.012 0.0352-0.029 0.0762-0.053 0.1231-0.808 1.7812-1.693 3.123-2.654 4.0254-0.9491 0.9023-2.0272 1.3652-3.2343 1.3886-0.7734 0-1.4414-0.1523-2.0039-0.457-0.5625-0.293-1.0254-0.6738-1.3887-1.1426-0.3632-0.4804-0.6328-1.0195-0.8086-1.6172-0.1757-0.5976-0.2636-1.1953-0.2636-1.7929 0-0.5977 0.0703-1.1485 0.2109-1.6524 0.1524-0.5039 0.3633-0.9433 0.6328-1.3183 0.2813-0.375 0.6094-0.668 0.9844-0.8789 0.3867-0.211 0.8086-0.3164 1.2656-0.3164 0.2696 0 0.5332 0.0586 0.791 0.1757 0.2696 0.1055 0.5098 0.2637 0.7207 0.4747 0.211 0.1992 0.3809 0.4453 0.5098 0.7382 0.1289 0.293 0.1934 0.627 0.1934 1.002 0 0.4805-0.0821 0.9316-0.2461 1.3535-0.1641 0.4219-0.3926 0.8145-0.6856 1.1777-0.2812 0.3633-0.6211 0.6973-1.0195 1.002s-0.8262 0.5684-1.2832 0.791zm-0.5273-1.1426c0.3632-0.1523 0.6914-0.3457 0.9843-0.58 0.3047-0.2344 0.5625-0.4922 0.7735-0.7735 0.2109-0.2812 0.375-0.5742 0.4922-0.8789 0.1171-0.3164 0.1757-0.6328 0.1757-0.9492 0-0.3516-0.0879-0.6152-0.2636-0.791-0.1758-0.1875-0.3809-0.2813-0.6153-0.2813-0.3164 0-0.5859 0.0879-0.8086 0.2637-0.2226 0.1758-0.4043 0.4043-0.5449 0.6855-0.1406 0.2813-0.2461 0.5977-0.3164 0.9493-0.0586 0.3398-0.0879 0.6796-0.0879 1.0195 0 0.2109 0.0176 0.4336 0.0527 0.668 0.0469 0.2343 0.0997 0.457 0.1583 0.6679zm9.5802-3.4277c-0.07 0.1875-0.158 0.3984-0.264 0.6328-0.094 0.2344-0.205 0.4805-0.334 0.7383-0.105 0.1992-0.217 0.3574-0.334 0.4746-0.105 0.1055-0.246 0.1582-0.422 0.1582-0.199 0-0.357-0.0586-0.474-0.1758-0.117-0.1289-0.176-0.2754-0.176-0.4394 0-0.0586 6e-3 -0.1055 0.017-0.1407 0.012-0.0468 0.042-0.1171 0.088-0.2109 0.305-0.5859 0.528-1.0957 0.668-1.5293 0.153-0.4453 0.276-0.9082 0.37-1.3887-0.083-0.2695-0.141-0.498-0.176-0.6855s-0.053-0.3809-0.053-0.5801c0-0.3867 0.082-0.6973 0.246-0.9316 0.164-0.2461 0.393-0.3692 0.686-0.3692 0.269 0 0.48 0.1172 0.632 0.3516 0.165 0.2344 0.247 0.5215 0.247 0.8613 0 0.1875-0.018 0.375-0.053 0.5625s-0.082 0.4219-0.141 0.7031c0.27 0.668 0.539 1.2598 0.809 1.7754 0.269 0.5157 0.51 0.9903 0.72 1.4239 0.211 0.4218 0.381 0.8203 0.51 1.1953 0.141 0.375 0.211 0.75 0.211 1.125 0 0.4922-0.099 0.9609-0.299 1.4062-0.199 0.4453-0.527 0.8203-0.984 1.125 0.059 0.0117 0.117 0.0176 0.176 0.0176h0.176c0.667 0 1.283-0.1523 1.845-0.457 0.563-0.3047 1.067-0.6973 1.512-1.1778 0.457-0.4921 0.861-1.0312 1.213-1.6171 0.351-0.5977 0.656-1.1895 0.914-1.7754 0.117-0.2696 0.281-0.4043 0.492-0.4043 0.199 0 0.352 0.0703 0.457 0.2109 0.117 0.1406 0.176 0.293 0.176 0.457 0 0.0938-0.018 0.1817-0.053 0.2637-0.129 0.3164-0.299 0.6797-0.51 1.0898-0.199 0.3985-0.445 0.8145-0.738 1.2481-0.281 0.4219-0.609 0.8379-0.984 1.248-0.375 0.4102-0.797 0.7793-1.266 1.1075-0.457 0.3164-0.961 0.5683-1.512 0.7558-0.55 0.1992-1.154 0.2989-1.81 0.2989-0.785 0-1.518-0.1407-2.197-0.4219-0.668-0.2696-1.213-0.7207-1.635-1.3535-0.07-0.1055-0.106-0.2168-0.106-0.334 0-0.1758 0.065-0.3282 0.194-0.4571 0.14-0.1406 0.299-0.2109 0.474-0.2109 0.188 0 0.346 0.0645 0.475 0.1934 0.012 0.0234 0.053 0.0644 0.123 0.123 0.07 0.0469 0.152 0.1055 0.246 0.1758 0.106 0.0586 0.223 0.1113 0.352 0.1582 0.14 0.0469 0.281 0.0703 0.422 0.0703 0.281 0 0.515-0.0586 0.703-0.1758 0.199-0.1172 0.357-0.2578 0.474-0.4218 0.117-0.1758 0.199-0.3575 0.246-0.545 0.059-0.1992 0.088-0.3691 0.088-0.5097 0-0.293-0.047-0.586-0.14-0.8789-0.094-0.293-0.217-0.586-0.37-0.8789-0.14-0.293-0.298-0.5918-0.474-0.8965-0.164-0.3164-0.317-0.6446-0.457-0.9844z"/>
<path d="m12.954 2.7345c-0.294 0.13475-0.4838 0.33075-0.6126 0.631-0.0795 0.202-0.0917 1.0962-0.0917 7.7357 0 6.6395 0.0122 7.5338 0.0917 7.7358 0.1288 0.3002 0.3186 0.4962 0.6126 0.631 0.2327 0.1102 0.686 0.1165 11.546 0.1165s11.313-6e-3 11.546-0.1165c0.294-0.1348 0.484-0.3308 0.6125-0.631 0.0795-0.202 0.0918-1.1025 0.0918-7.7543v-7.5215l-0.1348-0.2695c-0.0795-0.147-0.245-0.35525-0.3735-0.45325l-0.239-0.19-11.398-0.01225c-10.982-0.018-11.411-0.012-11.65 0.09825zm22.803 8.2995c0.0063 5.4207-6e-3 7.4235-0.055 7.4847-0.098 0.1165-22.283 0.1288-22.399 0.0123-0.0552-0.055-0.0735-1.7945-0.0735-7.4603 0-4.067 0.0183-7.4112 0.043-7.4295 0.0183-0.0245 5.0838-0.03675 11.252-0.0305l11.215 0.01825 0.0179 7.405z"/>
<path d="m24.972 8.0205c-0.1042 0.104-0.3797 0.94325-1.0475 3.1665-0.8575 2.836-0.9065 3.038-0.827 3.185 0.1408 0.251 0.3738 0.337 0.6308 0.2265 0.245-0.104 0.0917 0.3185 1.323-3.7608 0.6797-2.254 0.741-2.4867 0.6737-2.6522-0.1345-0.32425-0.5142-0.404-0.753-0.165z"/>
<path d="m21.284 8.0632c-0.098 0.06125-0.8697 0.8085-1.715 1.6538l-1.5312 1.5375 1.6537 1.6537c1.4945 1.4945 1.672 1.6538 1.8558 1.6538 0.251 0 0.5022-0.2328 0.5022-0.4718 0-0.1347-0.245-0.4105-1.3167-1.4882l-1.3168-1.317 1.2863-1.2862c0.7105-0.7105 1.3045-1.3475 1.323-1.427 0.0612-0.2205-0.0245-0.435-0.2205-0.533-0.2328-0.11625-0.3-0.11625-0.5208 0.0245z"/>
<path d="m27.103 8.0205c-0.1838 0.11025-0.2695 0.245-0.2758 0.447 0 0.15325 0.1898 0.3675 1.317 1.4945l1.317 1.323-1.329 1.3292c-1.2862 1.2923-1.323 1.3353-1.28 1.5313 0.049 0.251 0.2388 0.4165 0.49 0.4165 0.1715 0 0.3798-0.1898 1.8435-1.6538l1.6538-1.6537-1.562-1.568c-0.8575-0.8575-1.6355-1.6048-1.7273-1.6538-0.196-0.10425-0.2817-0.10425-0.4472-0.01225z"/>
<path d="m19.79 21.581c-0.1715 0.2145-0.1593 0.4105 0.0182 0.6188l0.147 0.1715h9.1938l0.1407-0.1348c0.1898-0.1897 0.1838-0.545-0.0062-0.6982-0.1348-0.1103-0.3368-0.1165-4.753-0.1165h-4.618l-0.1225 0.1592z"/>
</svg>
