<?xml version="1.0" ?><svg id="Icon_Set" style="enable-background:new 0 0 64 64;" version="1.1" viewBox="0 0 64 64" xml:space="preserve" xmlns="http://www.w3.org/2000/svg" xmlns:xlink="http://www.w3.org/1999/xlink"><style type="text/css">
	.st0{fill:#263238;}
	.st1{fill:#4FC3F7;}
	.st2{fill:#FFFFFF;}
	.st3{fill:#FF5592;}
	.st4{fill:#FF5252;}
	.st5{fill:#FFD740;}
	.st6{fill-rule:evenodd;clip-rule:evenodd;fill:#4DB6AC;}
	.st7{fill-rule:evenodd;clip-rule:evenodd;fill:#4FC3F7;}
	.st8{fill-rule:evenodd;clip-rule:evenodd;fill:#FFFFFF;}
	.st9{fill:#4DB6AC;}
	.st10{fill:#6F67D6;}
	.st11{fill:#FF7155;}
	.st12{fill:#445056;}
	.st13{fill:#08141A;}
</style><g><g><path class="st0" d="M52,56.5H12c-2.481,0-4.5-2.019-4.5-4.5V16c0-0.276,0.224-0.5,0.5-0.5s0.5,0.224,0.5,0.5v36    c0,1.93,1.57,3.5,3.5,3.5h40c1.93,0,3.5-1.57,3.5-3.5v-2c0-0.276,0.224-0.5,0.5-0.5s0.5,0.224,0.5,0.5v2    C56.5,54.481,54.481,56.5,52,56.5z"/></g><g><path class="st0" d="M56,48.5c-0.276,0-0.5-0.224-0.5-0.5V12c0-1.93-1.57-3.5-3.5-3.5H12c-1.93,0-3.5,1.57-3.5,3.5v2    c0,0.276-0.224,0.5-0.5,0.5S7.5,14.276,7.5,14v-2c0-2.481,2.019-4.5,4.5-4.5h40c2.481,0,4.5,2.019,4.5,4.5v36    C56.5,48.276,56.276,48.5,56,48.5z"/></g><g><path class="st1" d="M50,20.835c-1.325,0.587-2.748,0.984-4.242,1.163c1.525-0.914,2.696-2.361,3.247-4.086    c-1.427,0.846-3.008,1.461-4.69,1.792c-1.347-1.435-3.267-2.332-5.391-2.332c-4.079,0-7.386,3.307-7.386,7.386    c0,0.579,0.065,1.143,0.191,1.683c-6.138-0.308-11.581-3.248-15.223-7.717c-0.636,1.091-1,2.36-1,3.713    c0,2.562,1.304,4.823,3.286,6.148c-1.211-0.038-2.35-0.371-3.345-0.924c-0.001,0.031-0.001,0.062-0.001,0.093    c0,3.578,2.546,6.563,5.925,7.242c-0.62,0.169-1.272,0.259-1.946,0.259c-0.476,0-0.939-0.046-1.39-0.133    c0.94,2.934,3.667,5.07,6.899,5.129c-2.528,1.981-5.712,3.162-9.173,3.162c-0.596,0-1.184-0.035-1.762-0.103    c3.269,2.096,7.151,3.319,11.322,3.319c13.585,0,21.014-11.254,21.014-21.014c0-0.32-0.007-0.639-0.021-0.956    C47.758,23.617,49.01,22.316,50,20.835z"/></g><g><path class="st0" d="M25.322,47.128c-4.116,0-8.125-1.175-11.592-3.398c-0.196-0.125-0.279-0.37-0.201-0.589    c0.079-0.219,0.302-0.354,0.529-0.328c0.562,0.066,1.135,0.1,1.703,0.1c2.813,0,5.49-0.792,7.812-2.303    c-2.796-0.539-5.126-2.559-6.016-5.336c-0.054-0.168-0.015-0.352,0.103-0.484s0.297-0.193,0.468-0.16    c0.353,0.067,0.709,0.108,1.063,0.12c-2.55-1.332-4.246-4.008-4.246-6.998c0-0.177,0.094-0.388,0.246-0.478    c0.154-0.09,0.343-0.139,0.497-0.052c0.453,0.252,0.936,0.452,1.435,0.595c-1.348-1.445-2.118-3.359-2.118-5.382    c0-1.395,0.369-2.766,1.068-3.965c0.082-0.142,0.229-0.234,0.393-0.247c0.162-0.013,0.322,0.056,0.427,0.183    c3.532,4.333,8.688,7.039,14.226,7.492c-0.054-0.376-0.081-0.758-0.081-1.142c0-4.348,3.537-7.886,7.886-7.886    c2.078,0,4.088,0.831,5.559,2.288c1.504-0.325,2.938-0.889,4.269-1.678c0.178-0.106,0.403-0.091,0.566,0.039    c0.162,0.129,0.228,0.346,0.165,0.543c-0.37,1.157-1.002,2.204-1.836,3.067c0.736-0.193,1.455-0.445,2.15-0.753    c0.202-0.09,0.442-0.036,0.586,0.135c0.144,0.17,0.156,0.415,0.033,0.6c-0.981,1.467-2.188,2.741-3.592,3.791    c0.008,0.236,0.012,0.472,0.012,0.71c0,5.221-2.019,10.505-5.537,14.498C38.478,43.313,33.415,47.128,25.322,47.128z     M16.054,43.911c2.864,1.456,6.031,2.218,9.269,2.218c10.084,0,20.514-7.673,20.514-20.515c0-0.312-0.007-0.623-0.021-0.933    c-0.008-0.168,0.069-0.33,0.206-0.428c0.941-0.679,1.792-1.464,2.541-2.344c-0.892,0.278-1.81,0.474-2.745,0.586    c-0.24,0.027-0.457-0.112-0.532-0.335c-0.077-0.223,0.014-0.469,0.216-0.59c1.044-0.626,1.896-1.506,2.479-2.547    c-1.136,0.536-2.331,0.929-3.568,1.173c-0.169,0.033-0.344-0.023-0.461-0.148c-1.298-1.382-3.13-2.175-5.027-2.175    c-3.797,0-6.886,3.089-6.886,6.886c0,0.534,0.06,1.062,0.179,1.57c0.035,0.153-0.003,0.313-0.104,0.434    c-0.101,0.121-0.245,0.189-0.409,0.179c-5.807-0.292-11.267-2.949-15.097-7.321c-0.396,0.881-0.602,1.843-0.602,2.818    c0,2.307,1.146,4.45,3.064,5.732c0.186,0.124,0.266,0.356,0.198,0.568c-0.069,0.212-0.27,0.351-0.492,0.347    c-0.955-0.03-1.902-0.237-2.783-0.604c0.342,2.996,2.539,5.436,5.476,6.026c0.228,0.046,0.394,0.242,0.401,0.473    c0.008,0.232-0.145,0.438-0.368,0.5c-0.871,0.237-1.786,0.325-2.696,0.252c1.089,2.387,3.464,3.972,6.138,4.021    c0.212,0.004,0.398,0.141,0.465,0.341c0.067,0.201,0.001,0.422-0.165,0.552C22.592,42.723,19.42,43.849,16.054,43.911z"/></g></g></svg>